<svg width="56" height="56" viewBox="0 0 56 56" fill="none" xmlns="http://www.w3.org/2000/svg">
<g clip-path="url(#clip0_853_644)" filter="url(#filter0_d_853_644)">
<path d="M16.3334 30.3334H14C11.4227 30.3334 9.33337 32.4227 9.33337 35V42C9.33337 44.5774 11.4227 46.6667 14 46.6667H16.3334C18.9107 46.6667 21 44.5774 21 42V35C21 32.4227 18.9107 30.3334 16.3334 30.3334Z" stroke="black" stroke-width="2" stroke-linecap="round" stroke-linejoin="round"/>
<path d="M42 30.3334H39.6667C37.0893 30.3334 35 32.4227 35 35V42C35 44.5774 37.0893 46.6667 39.6667 46.6667H42C44.5773 46.6667 46.6667 44.5774 46.6667 42V35C46.6667 32.4227 44.5773 30.3334 42 30.3334Z" stroke="black" stroke-width="2" stroke-linecap="round" stroke-linejoin="round"/>
<path d="M9.33337 35V28C9.33337 23.0493 11.3 18.3014 14.8007 14.8007C18.3014 11.3 23.0493 9.33337 28 9.33337C32.9507 9.33337 37.6987 11.3 41.1994 14.8007C44.7 18.3014 46.6667 23.0493 46.6667 28V35" stroke="black" stroke-width="2" stroke-linecap="round" stroke-linejoin="round"/>
</g>
<defs>
<filter id="filter0_d_853_644" x="-4" y="0" width="64" height="64" filterUnits="userSpaceOnUse" color-interpolation-filters="sRGB">
<feFlood flood-opacity="0" result="BackgroundImageFix"/>
<feColorMatrix in="SourceAlpha" type="matrix" values="0 0 0 0 0 0 0 0 0 0 0 0 0 0 0 0 0 0 127 0" result="hardAlpha"/>
<feOffset dy="4"/>
<feGaussianBlur stdDeviation="2"/>
<feComposite in2="hardAlpha" operator="out"/>
<feColorMatrix type="matrix" values="0 0 0 0 0 0 0 0 0 0 0 0 0 0 0 0 0 0 0.25 0"/>
<feBlend mode="normal" in2="BackgroundImageFix" result="effect1_dropShadow_853_644"/>
<feBlend mode="normal" in="SourceGraphic" in2="effect1_dropShadow_853_644" result="shape"/>
</filter>
<clipPath id="clip0_853_644">
<rect width="56" height="56" fill="white"/>
</clipPath>
</defs>
</svg>
